<svg width="33" height="32" viewBox="0 0 33 32" fill="none" xmlns="http://www.w3.org/2000/svg">
<path d="M25.2907 4.86119C24.1928 4.64746 23.0781 4.53431 21.9633 4.53431C19.8638 4.53431 17.7643 4.91148 15.7695 5.66999L15.7611 5.67418L15.7234 5.69095C15.451 5.79571 15.1828 5.90466 14.9188 6.02619L14.8434 6.05972H14.8392C14.571 6.18125 14.3028 6.31116 14.0388 6.44526H14.0346L13.9633 6.48298C13.7077 6.61289 13.4521 6.75538 13.2006 6.90205C13.1629 6.9272 13.1252 6.94815 13.0875 6.97329C12.8612 7.1032 12.6433 7.24149 12.4295 7.38398C12.4086 7.40074 12.3667 7.4175 12.3206 7.45103C11.3777 8.07963 10.4809 8.80881 9.65112 9.64275V9.64694C9.64693 9.64694 9.64692 9.64694 9.64692 9.64694C9.63854 9.65532 9.63017 9.66371 9.62598 9.67209C9.6595 9.59666 9.68884 9.51703 9.71817 9.44579L9.72237 9.4416L9.73912 9.40389C9.88579 9.07282 10.0492 8.75014 10.221 8.42746C11.2352 6.52908 12.6139 4.857 14.2734 3.5076L14.2776 3.50341L14.2818 3.49921C14.3698 3.42378 14.4704 3.35254 14.571 3.27292C14.6464 3.21425 14.7135 3.15977 14.7721 3.11367C14.8266 3.07596 14.8895 3.03405 14.9523 2.98376C15.0655 2.90414 15.1744 2.82452 15.2792 2.74909C15.4426 2.63175 15.6103 2.52279 15.7779 2.41802L15.7863 2.41383L15.8072 2.40126C15.9832 2.28811 16.1592 2.17915 16.3394 2.07857L16.3436 2.07439C18.2336 0.972237 20.3625 0.251441 22.638 0C23.8198 1.4835 24.704 3.13463 25.2907 4.86119Z" fill="#0EA5E9"/>
<path d="M27.428 23.0823C27.449 22.7052 27.4615 22.3322 27.4615 21.955C27.4615 19.8555 27.0844 17.756 26.3259 15.7654L26.3217 15.757L26.3091 15.7235C26.2127 15.4804 26.1163 15.2332 26.0116 14.9985C25.9613 14.877 25.9026 14.7596 25.8523 14.6507C25.8062 14.5543 25.7643 14.4495 25.7056 14.3364L25.7014 14.328L25.6679 14.2568C25.647 14.2107 25.6218 14.1687 25.6009 14.1268L25.5883 14.0975C25.5883 14.0933 25.5841 14.0933 25.5841 14.0891C25.5799 14.0849 25.5799 14.0807 25.5799 14.0807L25.5715 14.064L25.5632 14.0514L25.5548 14.0388L25.5464 14.0263C25.5171 13.9676 25.4877 13.9089 25.4584 13.8545L25.4542 13.8503L25.45 13.8419L25.4458 13.8377C25.3997 13.7497 25.3578 13.6659 25.3033 13.5779L25.2991 13.5695L25.295 13.5611L25.2866 13.5401L25.2572 13.4941V13.4899C25.1986 13.3851 25.1399 13.2761 25.0728 13.163L25.0687 13.1588L25.0645 13.1504L25.0603 13.142L25.0561 13.1337C24.9765 12.9996 24.8927 12.8571 24.8005 12.7146L24.7963 12.7062C24.7125 12.5763 24.6244 12.438 24.5406 12.3039L24.5323 12.2913L24.5239 12.2788C24.4862 12.2201 24.4359 12.1488 24.3814 12.065L24.352 12.0231L24.3479 12.0147L24.3395 12.0064L24.3353 12.0022L24.3269 11.9854L24.3185 11.977L24.3143 11.9686L24.2682 11.9058L24.264 11.8974C24.1928 11.7968 24.1216 11.6963 24.0461 11.5957V11.5915H24.0419L24.0336 11.5747C24.0294 11.5747 24.0294 11.5747 24.0294 11.5705C23.9665 11.4825 23.8995 11.3945 23.8282 11.3023C23.7821 11.2437 23.7486 11.1976 23.7234 11.1724C23.6606 11.0844 23.5935 11.0006 23.5223 10.9168L23.5181 10.9126L23.4846 10.8749C23.4092 10.7785 23.3253 10.6779 23.2331 10.5773L23.229 10.5731V10.569C22.9482 10.2421 22.6464 9.92359 22.3363 9.60929C22.328 9.6051 22.328 9.60091 22.3196 9.59253C22.4034 9.62605 22.4914 9.66377 22.5752 9.70148C25.6554 11.0844 28.2159 13.4019 29.9005 16.2976L29.9089 16.306C31.0069 18.1918 31.7277 20.3249 31.9791 22.592C30.4956 23.7822 28.8487 24.6664 27.1221 25.2489C27.1305 25.1902 27.143 25.1358 27.1472 25.0897C27.1682 24.9723 27.1933 24.8508 27.2143 24.7251V24.7167L27.2185 24.7041C27.2772 24.3395 27.3233 23.9749 27.361 23.6104C27.3693 23.5056 27.3777 23.405 27.3819 23.3086C27.4113 23.2583 27.4196 23.1745 27.428 23.0823Z" fill="#0EA5E9"/>
<path d="M22.3824 22.3322C22.3657 22.3657 22.3531 22.4034 22.3363 22.4369C22.3112 22.4998 22.286 22.5543 22.2693 22.6004C20.8864 25.6763 18.5647 28.241 15.6731 29.9257C13.7832 31.0278 11.6543 31.7486 9.37875 32.0001C8.1886 30.5124 7.30436 28.8654 6.71347 27.1347C7.81143 27.3484 8.92615 27.4574 10.0409 27.4574C12.1446 27.4574 14.2441 27.0802 16.2347 26.3259C16.4903 26.2253 16.746 26.1205 16.9974 26.0116L17.0519 25.9906H17.0603L17.0687 25.9864C17.2028 25.9236 17.3369 25.8691 17.4584 25.8104L17.4668 25.802L17.4751 25.7978L17.4919 25.7895C17.5799 25.7476 17.6679 25.7057 17.7559 25.6637L17.7643 25.6596L17.7727 25.6512L17.7811 25.647L17.802 25.6344L17.8481 25.6135C17.8481 25.6135 17.8481 25.6135 17.8523 25.6135L17.8858 25.5967C17.9487 25.5674 18.0032 25.5338 18.0535 25.5087L18.0786 25.4961L18.0912 25.4877L18.0954 25.4835L18.1163 25.4752L18.1373 25.4626H18.1456L18.1498 25.4584H18.154V25.4542C18.2169 25.4207 18.2756 25.3914 18.3342 25.3578C18.3636 25.3453 18.3971 25.3243 18.439 25.2992H18.4432L18.4516 25.295L18.4725 25.2824H18.4767L18.4809 25.2782C18.5773 25.2237 18.6779 25.1651 18.7784 25.1064L18.8245 25.0812L18.8287 25.0771C18.8413 25.0687 18.8874 25.0435 18.9335 25.0142C19.0089 24.9723 19.0844 24.9262 19.1556 24.8843C19.1556 24.8843 19.1556 24.8843 19.1556 24.8801L19.2059 24.8508L19.2143 24.8424H19.2185C19.2436 24.8256 19.2939 24.7963 19.3484 24.7627C19.4615 24.6915 19.5747 24.6161 19.6878 24.5448L19.7004 24.5365L19.713 24.5281L19.7213 24.5239C19.8261 24.4526 19.9351 24.3772 20.044 24.2976L20.0524 24.2934L20.0566 24.2892L20.065 24.285C20.1572 24.2222 20.2494 24.1551 20.3332 24.0922H20.3374C20.3416 24.088 20.3458 24.0881 20.3458 24.0839C20.5008 23.9707 20.6475 23.8576 20.7942 23.7444L20.8235 23.7235L20.8319 23.7151C20.9073 23.6522 20.9911 23.5894 21.0666 23.5307L21.0749 23.5223H21.0791L21.1127 23.4972L21.1168 23.493L21.1252 23.4846L21.1336 23.4762C21.2384 23.3966 21.3348 23.3128 21.4228 23.2332V23.229C21.7538 22.9482 22.0765 22.6506 22.3866 22.3363L22.3824 22.3322Z" fill="#0EA5E9"/>
<path d="M9.65951 22.374C9.59665 22.3488 9.5296 22.3237 9.46255 22.2943L9.45837 22.2901L9.39551 22.265C6.78472 21.0916 4.54689 19.2393 2.89576 16.9386C2.60241 16.528 2.32164 16.1047 2.0702 15.6689L2.06182 15.6521C0.968053 13.7705 0.251441 11.6416 0 9.37446C1.48769 8.18431 3.13462 7.30007 4.86537 6.71338C4.65165 7.81134 4.5385 8.92606 4.5385 10.0408C4.5385 12.1403 4.91567 14.2398 5.67418 16.2346C6.12678 17.429 6.71766 18.5898 7.45103 19.6835V19.6877C8.07963 20.6306 8.80881 21.5274 9.64276 22.3614C9.64695 22.3656 9.65532 22.3698 9.65951 22.374Z" fill="#0EA5E9"/>
<path d="M14.6925 1.55474C12.0147 3.35673 9.86902 5.8879 8.53219 8.86329C8.00417 10.0325 7.60606 11.2687 7.34623 12.5637C7.12832 13.6658 7.00679 14.8057 7.00679 15.9749V16.0335C6.97327 15.9455 6.93135 15.8575 6.89783 15.7695C6.19799 13.9298 5.85016 11.9853 5.85016 10.0451C5.85016 8.65795 6.02618 7.27083 6.38238 5.92143C6.93974 3.80513 7.93712 1.78942 9.37033 0C11.2687 0.205343 13.0581 0.741747 14.6925 1.55474Z" fill="#0EA5E9"/>
<path d="M32.0043 9.37039C31.7905 11.2646 31.2541 13.054 30.4453 14.6926C28.635 12.0147 26.1122 9.86908 23.1368 8.53226C22.5836 8.28501 22.0137 8.05871 21.4312 7.87013H21.427C21.339 7.8366 21.251 7.81146 21.163 7.78632H21.1588L21.1546 7.78212C21.0624 7.75279 20.9702 7.72345 20.8738 7.69831L20.8654 7.69412H20.8571L20.8319 7.68574C20.6852 7.63964 20.5386 7.60193 20.3961 7.56421C20.2494 7.52649 20.0944 7.48878 19.9351 7.45106H19.9309L19.9142 7.44268C19.7591 7.40915 19.604 7.37563 19.4448 7.33791H19.4238C19.4238 7.33791 19.4238 7.33372 19.4197 7.33372H19.4071V7.32953C19.34 7.32114 19.2562 7.30019 19.1556 7.27924L19.1054 7.27086H19.1012L19.0844 7.26667H19.076L19.0593 7.26248H19.0509L19.0425 7.25829C19.009 7.25409 18.9796 7.24991 18.9754 7.24991L18.9671 7.24571H18.9587C18.8413 7.22476 18.7198 7.20381 18.5941 7.18704L18.5731 7.18286C18.4642 7.1619 18.351 7.14933 18.2421 7.13256C18.1666 7.12418 18.108 7.11581 18.0703 7.11162C17.9655 7.09485 17.8607 7.08647 17.7518 7.07809L17.7476 7.07389L17.6973 7.06971H17.6931C17.5716 7.05713 17.4458 7.04456 17.3075 7.03618L17.2992 7.03199C16.8675 6.99847 16.4317 6.98171 15.9917 6.98171H15.9623C16.0503 6.94818 16.1342 6.90627 16.218 6.87274C18.0577 6.17709 20.0064 5.82507 21.9508 5.82507C23.3338 5.82507 24.7209 6.00527 26.0703 6.35729C28.1991 6.9398 30.2148 7.94137 32.0043 9.37039Z" fill="#0EA5E9"/>
<path d="M26.1457 21.9633C26.1457 23.3505 25.9697 24.7334 25.6135 26.0786C25.0561 28.1949 24.0587 30.2064 22.6297 31.9958C20.7397 31.7821 18.9503 31.2457 17.3117 30.4411C19.9854 28.6307 22.131 26.1079 23.4678 23.1325V23.1283C23.5894 22.8601 23.7025 22.5877 23.8115 22.3112L23.8157 22.3028C23.8701 22.1645 23.9204 22.0304 23.9665 21.9005V21.8963L23.9707 21.8879V21.8837L23.9791 21.8628C24.0126 21.7664 24.042 21.6784 24.0713 21.5862L24.0755 21.582L24.0797 21.5694L24.0839 21.561L24.0923 21.5275C24.1216 21.4395 24.1467 21.3599 24.1677 21.2844L24.1845 21.2342L24.1886 21.23V21.2216C24.2264 21.1042 24.2641 20.9827 24.3018 20.8528L24.306 20.8444V20.836C24.3521 20.6936 24.3856 20.5553 24.4233 20.417C24.4317 20.396 24.4443 20.3541 24.4568 20.2954C24.4778 20.2074 24.503 20.1236 24.5197 20.044V20.0398C24.5197 20.0398 24.5197 20.0398 24.5197 20.0356L24.5323 19.9811L24.5365 19.9769V19.9728C24.5448 19.9434 24.5574 19.8931 24.57 19.8261C24.5993 19.6962 24.6287 19.5663 24.658 19.4322L24.6622 19.4154V19.4028L24.6664 19.3944C24.6873 19.2687 24.7167 19.1346 24.7418 18.9921C24.7418 18.9921 24.7418 18.9921 24.7418 18.9879C24.7628 18.8706 24.7795 18.7575 24.7963 18.6485C24.7963 18.6485 24.7963 18.6485 24.7963 18.6443C24.8298 18.4557 24.8508 18.2713 24.8717 18.087L24.8801 18.0492V18.0367C24.8927 17.9361 24.9011 17.8397 24.9136 17.7391V17.7307L24.9178 17.6805L24.922 17.6721C24.9346 17.5422 24.943 17.4081 24.9555 17.2865C24.9891 16.8507 25.0016 16.4149 25.0016 15.9707V15.9371C25.0352 16.0251 25.0771 16.1131 25.1106 16.2053C25.7979 18.0744 26.1457 20.0189 26.1457 21.9633Z" fill="#0EA5E9"/>
<path d="M16.0294 24.9891C15.9413 25.0226 15.8533 25.0645 15.7653 25.098C13.9256 25.7937 11.9812 26.1457 10.0367 26.1457C8.65376 26.1457 7.26664 25.9655 5.91724 25.6135C3.80095 25.0561 1.78523 24.0545 0 22.6255C0.209534 20.7313 0.750132 18.9377 1.55893 17.3033C3.36093 19.9812 5.89209 22.1268 8.86329 23.4636C10.0325 23.9959 11.2687 24.394 12.5637 24.6496C13.6742 24.8759 14.8266 24.9932 16.0042 24.9932C16.0126 24.9932 16.021 24.9891 16.0294 24.9891Z" fill="#0EA5E9"/>
</svg>
