<svg width="32" height="32" viewBox="0 0 32 32" fill="none" xmlns="http://www.w3.org/2000/svg">
<path d="M24.3869 3.42633L23.8278 2.00391C23.8278 2.00391 23.5997 1.3419 23.4879 1.13614C23.4342 1.04221 23.3134 0.903546 23.2105 0.796194C22.6604 0.246012 21.8865 0.00894006 21.2022 0.228118C20.7772 0.362309 20.3746 0.554647 20.3746 0.554647C20.3746 0.554647 20.3702 0.550174 20.3702 0.554647L18.9522 1.17193C18.4915 1.37321 18.0174 1.5253 17.5298 1.62818C16.5189 1.84288 15.4767 1.84288 14.4703 1.62818C13.9827 1.5253 13.5041 1.37321 13.0434 1.17193L11.7149 0.594909C11.7149 0.594909 10.9679 0.228119 10.704 0.152078C10.0464 -0.0447354 9.30839 0.246013 8.78952 0.769357C8.70006 0.858817 8.55692 1.05116 8.49877 1.15851C8.378 1.3911 8.1633 2.02628 8.1633 2.02628L7.61312 3.42186C7.42972 3.89152 7.19712 4.33435 6.92874 4.75481C7.32237 4.66983 7.75625 4.72798 8.23039 4.93821L10.3461 5.85965L12.1309 6.63796L12.198 6.66927L14.3271 7.59519C15.3962 8.06038 16.6084 8.06038 17.6729 7.59966L19.8021 6.66927L19.8692 6.63796L21.6539 5.85965L23.7697 4.93821C24.2483 4.73245 24.6822 4.66983 25.0758 4.75929C24.7985 4.33883 24.5703 3.89599 24.3869 3.42633Z" fill="#DC3545"/>
<path d="M28.5468 24.4004L29.9693 23.8412L30.837 23.5013H30.8415L30.846 23.4968C30.9667 23.4163 31.0741 23.3268 31.177 23.2195C31.7272 22.6693 31.924 21.9044 31.7764 21.1977C31.7808 21.1932 31.7764 21.1932 31.7764 21.1932L31.7719 21.1887L31.4185 20.3791C31.4185 20.3791 31.423 20.3747 31.4185 20.3747L30.8012 18.9567C30.6 18.496 30.4479 18.0218 30.345 17.5343C30.1303 16.5234 30.1303 15.4812 30.345 14.4747C30.4479 13.9872 30.6 13.5086 30.8012 13.0478L31.3783 11.7194L31.8211 10.7085C31.9329 10.033 31.7272 9.31287 31.2038 8.78953C31.1144 8.70007 31.0159 8.61508 30.9131 8.54799L29.9424 8.16778L28.5468 7.6176C28.0772 7.43421 27.6343 7.20161 27.2139 6.93323C27.2989 7.32685 27.2407 7.76073 27.0305 8.23487L26.109 10.3506L25.3307 12.1353L25.2994 12.2024L24.3735 14.3316C23.9083 15.4007 23.9083 16.6128 24.369 17.6774L25.2994 19.8066L25.3307 19.8737L26.109 21.6584L27.0305 23.7742C27.2362 24.2528 27.2989 24.6866 27.2094 25.0803C27.6343 24.8164 28.0772 24.5838 28.5468 24.4004Z" fill="#DC3545"/>
<path d="M7.57284 28.5647L8.13196 29.9871C8.13196 29.9871 8.36009 30.6491 8.47191 30.8549C8.52559 30.9488 8.64636 31.0875 8.74924 31.1948C9.29942 31.745 10.0733 31.9821 10.7576 31.7629C11.1826 31.6287 11.5851 31.4364 11.5851 31.4364C11.5851 31.4364 11.5896 31.4408 11.5896 31.4364L13.0076 30.8191C13.4683 30.6178 13.9424 30.4657 14.43 30.3629C15.4409 30.1481 16.4831 30.1481 17.4895 30.3629C17.9771 30.4657 18.4557 30.6178 18.9164 30.8191L20.2449 31.3961C20.2449 31.3961 20.9919 31.7629 21.2558 31.839C21.9133 32.0358 22.6514 31.745 23.1703 31.2217C23.2597 31.1322 23.4029 30.9399 23.461 30.8325C23.5818 30.5999 23.7965 29.9648 23.7965 29.9648L24.3422 28.5692C24.5256 28.0995 24.7582 27.6567 25.0266 27.2362C24.6329 27.3212 24.1991 27.2631 23.7249 27.0528L21.6092 26.1314L19.8244 25.3531L19.7573 25.3218L17.6282 24.3958C16.5591 23.9306 15.3469 23.9307 14.2824 24.3914L12.1532 25.3218L12.0861 25.3531L10.3014 26.1314L8.18564 27.0528C7.70703 27.2586 7.27314 27.3212 6.87952 27.2317C7.15684 27.6522 7.38944 28.095 7.57284 28.5647Z" fill="#DC3545"/>
<path d="M3.40846 7.59518L1.98604 8.15431L1.11827 8.49426H1.1138L1.10933 8.49874C0.988554 8.57925 0.881201 8.66871 0.778321 8.77606C0.22814 9.32624 0.0313274 10.0911 0.178937 10.7979C0.174464 10.8023 0.178937 10.8023 0.178937 10.8023L0.183409 10.8068L0.536779 11.6164C0.536779 11.6164 0.532306 11.6209 0.536779 11.6209L1.15406 13.0389C1.35534 13.4996 1.50742 13.9737 1.6103 14.4613C1.82501 15.4722 1.82501 16.5144 1.6103 17.5208C1.50742 18.0084 1.35534 18.487 1.15406 18.9477L0.577036 20.2762L0.134207 21.2871C0.0223812 21.9625 0.22814 22.6827 0.751483 23.206C0.840944 23.2955 0.93935 23.3805 1.04223 23.4476L2.01288 23.8278L3.40846 24.378C3.87813 24.5614 4.32096 24.794 4.74142 25.0623C4.65643 24.6687 4.71458 24.2348 4.92481 23.7607L5.84626 21.6449L6.62456 19.8602L6.65587 19.7931L7.58179 17.664C8.04698 16.5949 8.04698 15.3827 7.58626 14.3181L6.65587 12.189L6.62456 12.1219L5.84626 10.3371L4.92481 8.2214C4.71905 7.74279 4.65643 7.30891 4.74589 6.91528C4.32096 7.17919 3.87813 7.40732 3.40846 7.59518Z" fill="#DC3545"/>
<path d="M13.0254 1.03774L11.6164 0.420458C11.6164 0.420458 10.9813 0.111821 10.7531 0.0447261C10.6458 0.013415 10.4624 0 10.3148 0C9.52753 0 8.81185 0.384674 8.47637 1.02879C8.27061 1.43136 8.11853 1.85183 8.11853 1.85183C8.11853 1.85183 8.11406 1.85183 8.11406 1.8563L7.54598 3.31003C7.35812 3.78417 7.12999 4.23148 6.85714 4.65194C6.28906 5.52418 5.54207 6.27118 4.6743 6.83478C4.25384 7.10763 3.80654 7.34023 3.3324 7.5281L1.9726 8.06486C1.9726 8.06486 1.18087 8.33771 0.934857 8.4719C0.326526 8.8029 0.00894165 9.53648 0.00894165 10.279C0.00894165 10.4087 0.0447258 10.6458 0.0805099 10.7621C0.156551 11.0126 0.460717 11.6209 0.460717 11.6209L1.06458 13.0075C1.23008 13.3833 1.35979 13.7724 1.4582 14.1661C1.48504 14.2734 1.61923 14.3092 1.6908 14.2287C1.9055 13.9916 2.2052 13.7948 2.58093 13.6472L4.74587 12.7973L6.57534 12.0816L6.64691 12.0548L8.82527 11.196C9.91669 10.7666 10.7845 9.8988 11.2139 8.81185L12.0682 6.62901L12.095 6.55745L12.8107 4.72798L13.6606 2.56304C13.8082 2.18731 14.005 1.88761 14.2421 1.67291C14.3226 1.59686 14.2868 1.46715 14.1795 1.44031C13.7903 1.33296 13.4012 1.19877 13.0254 1.03774Z" fill="#DC3545" fill-opacity="0.6"/>
<path d="M30.9533 13.0254L31.5706 11.6164L31.9463 10.7531L31.9508 10.7487V10.7442C31.9776 10.6011 31.9911 10.4579 31.9911 10.3103C31.9911 9.52306 31.584 8.83869 30.9757 8.44059C30.9757 8.43612 30.9712 8.43612 30.9712 8.43612H30.9667L30.1392 8.10958C30.1392 8.10958 30.1392 8.10511 30.1348 8.10511L28.681 7.53704C28.2069 7.34917 27.7596 7.12105 27.3391 6.8482C26.4669 6.28012 25.7199 5.53312 25.1563 4.66536C24.8834 4.24489 24.6508 3.79759 24.463 3.32345L23.9262 1.96366L23.5281 0.943808C23.5236 0.930389 23.5147 0.916969 23.5102 0.908023C23.1076 0.357841 22.4546 0 21.7165 0C21.5868 0 21.4571 0.00894686 21.3363 0.035785L20.3702 0.456243L18.9835 1.0601C18.6078 1.22561 18.2186 1.35533 17.825 1.45373C17.7177 1.48057 17.6819 1.61476 17.7624 1.68632C17.9995 1.90103 18.1963 2.20072 18.3439 2.57646L19.1937 4.7414L19.9094 6.56639L19.9363 6.63796L20.7951 8.81632C21.2245 9.90774 22.0923 10.7755 23.1792 11.2049L25.362 12.0593L25.4336 12.0861L27.2631 12.8018L29.428 13.6517C29.8038 13.7993 30.1034 13.9961 30.3182 14.2332C30.3942 14.3137 30.5239 14.2779 30.5507 14.1705C30.6581 13.7859 30.7878 13.4012 30.9533 13.0254Z" fill="#DC3545" fill-opacity="0.6"/>
<path d="M18.9656 30.9578L20.3746 31.5751C20.3746 31.5751 21.0098 31.8838 21.2379 31.9509C21.3453 31.9822 21.5287 31.9956 21.6763 31.9956C22.4635 31.9956 23.1792 31.6109 23.5147 30.9668C23.7204 30.5642 23.8725 30.1437 23.8725 30.1437C23.8725 30.1437 23.877 30.1437 23.877 30.1393L24.4451 28.6855C24.6329 28.2114 24.8611 27.7641 25.1339 27.3436C25.702 26.4714 26.449 25.7244 27.3167 25.1608C27.7372 24.8879 28.1845 24.6553 28.6587 24.4675L30.0185 23.9307C30.0185 23.9307 30.8102 23.6579 31.0562 23.5237C31.6645 23.1927 31.9821 22.4591 31.9821 21.7166C31.9821 21.5869 31.9463 21.3498 31.9105 21.2335C31.8345 20.983 31.5303 20.3747 31.5303 20.3747L30.9265 18.988C30.761 18.6123 30.6313 18.2231 30.5329 17.8295C30.506 17.7222 30.3718 17.6864 30.3003 17.7669C30.0855 18.004 29.7859 18.2008 29.4101 18.3484L27.2452 19.1983L25.4157 19.9139L25.3441 19.9408L23.1658 20.7996C22.0744 21.229 21.2066 22.0968 20.7772 23.1837L19.9228 25.3666L19.896 25.4381L19.1803 27.2676L18.3304 29.4325C18.1828 29.8083 17.986 30.108 17.749 30.3227C17.6684 30.3987 17.7042 30.5284 17.8116 30.5553C18.2007 30.6626 18.5899 30.7923 18.9656 30.9578Z" fill="#DC3545" fill-opacity="0.6"/>
<path d="M1.03774 18.9701L0.420464 20.3791L0.0447304 21.2424L0.0402573 21.2469V21.2513C0.0134191 21.3945 0 21.5376 0 21.6852C0 22.4725 0.407045 23.1568 1.01538 23.5549C1.01538 23.5594 1.01985 23.5594 1.01985 23.5594H1.02432L1.85183 23.8859C1.85183 23.8859 1.85183 23.8904 1.8563 23.8904L3.31004 24.4585C3.78418 24.6464 4.23148 24.8745 4.65194 25.1473C5.52418 25.7154 6.27118 26.4624 6.83478 27.3302C7.10763 27.7506 7.34023 28.1979 7.5281 28.6721L8.06486 30.0319L8.46296 31.0517C8.46743 31.0652 8.47638 31.0786 8.48085 31.0875C8.88342 31.6377 9.53648 32 10.2745 32C10.4042 32 10.5295 31.9911 10.6547 31.9642L11.6209 31.5438L13.0075 30.9399C13.3833 30.7744 13.7724 30.6447 14.1661 30.5463C14.2734 30.5194 14.3092 30.3853 14.2287 30.3137C13.9916 30.099 13.7948 29.7993 13.6472 29.4235L12.7973 27.2586L12.0816 25.4291L12.0548 25.3576L11.196 23.1792C10.7666 22.0878 9.8988 21.22 8.81185 20.7906L6.62902 19.9363L6.55745 19.9094L4.72798 19.1937L2.56304 18.3439C2.18731 18.1963 1.88762 17.9995 1.67291 17.7624C1.59687 17.6819 1.46715 17.7177 1.44031 17.825C1.33296 18.2052 1.20324 18.5899 1.03774 18.9701Z" fill="#DC3545" fill-opacity="0.6"/>
</svg>
