<svg width="33" height="32" viewBox="0 0 33 32" fill="none" xmlns="http://www.w3.org/2000/svg">
<path d="M12.8403 22.9568L12.5032 22.1044C12.0383 20.911 11.0929 19.9695 9.8995 19.5007L9.0471 19.1636L8.69452 19.028L6.69912 18.2453L6.27291 18.0787L4.23489 17.2805L2.56109 16.6257C2.28599 16.5056 2.15038 16.3041 2.15038 16.0213C2.15038 16.0136 2.15038 16.0097 2.15426 16.0019C2.15038 15.9942 2.15038 15.9903 2.15038 15.9826C2.15038 15.6958 2.28599 15.4944 2.56109 15.3781L4.23489 14.7195L6.27291 13.9213L6.69912 13.7547L5.87771 11.8678L5.84671 11.7903L3.87844 12.5613L1.54595 13.4757C0.980264 13.7004 0.577309 14.0182 0.34871 14.425C0.116237 14.8318 0 15.3588 0 15.9981C0 16.6374 0.116237 17.1604 0.34871 17.5711C0.577309 17.978 0.980264 18.2957 1.54595 18.5204L3.87844 19.4348L5.84284 20.2058L5.92033 20.2368L7.83436 20.9885L8.49304 19.4774L7.83436 20.9885L8.24507 21.1473C9.43843 21.6162 10.3799 22.5577 10.8488 23.7511L11.0076 24.1618L12.972 23.3055L12.8403 22.9568Z" fill="#DC3545"/>
<path d="M28.0092 24.4408L27.0095 22.1432L26.1649 20.2098L26.1494 20.2136L26.1649 20.2098L26.13 20.1323L25.3086 18.2454L24.4407 18.5863L25.3086 18.2454L25.1304 17.8424C24.6189 16.6684 24.6189 15.3356 25.1304 14.1616L25.3086 13.7586L23.3132 12.976L23.1621 13.3208L22.7979 14.1577C22.2826 15.3356 22.2826 16.6723 22.7979 17.8463L23.1621 18.6832L23.3132 19.028L24.1695 20.9924L25.0684 20.6398L24.1734 20.9924L24.3555 21.4109L25.235 23.4179L25.9557 25.0685C26.0642 25.3435 26.0177 25.5838 25.8162 25.7853L25.8046 25.7969C25.8007 25.8007 25.7968 25.8046 25.7929 25.8085C25.5915 26.01 25.3551 26.0565 25.0761 25.948L23.4256 25.2273L21.4186 24.3517L21.0001 24.1657L20.2484 26.0836L20.2174 26.1611L22.1547 27.0057L24.4523 28.0054C25.0103 28.2495 25.5178 28.3076 25.9712 28.1797C26.4245 28.0557 26.8739 27.7652 27.3273 27.3157C27.7806 26.8624 28.0712 26.4129 28.1952 25.9596C28.3114 25.5102 28.2533 25.0026 28.0092 24.4408Z" fill="#0EA5E9"/>
<path d="M19.4387 3.87844L18.5243 1.54595C18.2996 0.980264 17.9819 0.57731 17.575 0.348711C17.1682 0.116237 16.6451 0 16.0058 0C15.3665 0 14.8435 0.116237 14.4328 0.348711C14.0259 0.57731 13.7082 0.980264 13.4835 1.54595L12.5652 3.87844L11.7942 5.84284L11.8717 5.87383L13.1232 6.42015L11.8717 5.87383L11.7942 5.83896L11.7632 5.91646L11.0115 7.83049L10.8527 8.24119C10.3838 9.43456 9.44232 10.3761 8.24896 10.8449L7.83438 11.0076L8.69453 12.972L9.04712 12.8325L9.89565 12.4993C11.089 12.0344 12.0344 11.089 12.4994 9.89176L12.8364 9.03935L12.9721 8.68677L12.4296 8.45042L12.9721 8.68677L13.7547 6.69137L13.9252 6.26904L14.7234 4.22715L15.3782 2.55334C15.4983 2.28212 15.6959 2.14651 15.9826 2.14651H16.0175C16.3042 2.14651 16.5018 2.28212 16.6219 2.55334L17.2767 4.22715L18.0787 6.26904L18.2453 6.69524L20.1322 5.87383L20.2059 5.83896L19.4387 3.87844Z" fill="#DC3545"/>
<path d="M28.1874 6.04439C28.0634 5.59107 27.7728 5.14162 27.3195 4.68829C26.8662 4.23497 26.4167 3.94438 25.9634 3.82039C25.5101 3.69641 25.0025 3.75452 24.4446 3.99475L22.147 4.99438L20.2097 5.83904L20.1361 5.87391L18.2492 6.69532L17.8423 6.87355C16.6722 7.38499 15.3394 7.38499 14.1654 6.87355L13.7586 6.69532L12.9759 8.69072L13.3246 8.84182L14.1615 9.20603C15.3355 9.72135 16.6722 9.72135 17.8462 9.20603L18.687 8.84182L19.0318 8.69072L18.8962 8.34201L19.0318 8.69072L20.9962 7.83444L20.2446 5.9204L20.2291 5.87778L20.2484 5.9204L21.0001 7.83444L21.4186 7.65233L23.4256 6.77281L25.0761 6.05214C25.3512 5.94365 25.5915 5.99015 25.7929 6.19162C25.7968 6.1955 25.8007 6.19937 25.8046 6.20325C25.8084 6.20712 25.8123 6.211 25.8162 6.21487C26.0177 6.41635 26.0642 6.6527 25.9557 6.93166L25.235 8.58223L24.3555 10.5893L24.1734 11.0077L26.0874 11.7594L26.1688 11.7904L27.0096 9.85696L28.0131 7.55934C28.2533 7.00141 28.3114 6.49384 28.1874 6.04439Z" fill="#0EA5E9"/>
<path d="M31.6591 14.4289C31.4305 14.022 31.0275 13.7043 30.4618 13.4796L28.1293 12.5652L26.1649 11.7942L26.1417 11.8445L26.1611 11.798L26.0836 11.767L24.1695 11.0154L23.7588 10.8488C22.5693 10.3799 21.6239 9.43842 21.1551 8.24505L20.9963 7.83435L19.0319 8.6945L19.1675 9.04709L19.5046 9.89949C19.9695 11.0929 20.9149 12.0382 22.1121 12.5071L22.9607 12.8403L23.3132 12.9798L25.3086 13.7624L25.8007 12.6349L25.3125 13.7547L25.7387 13.9213L27.7729 14.7233L29.4506 15.382C29.7218 15.4982 29.8574 15.6997 29.8574 15.9864C29.8574 15.9942 29.8574 15.9981 29.8535 16.0058C29.8574 16.0135 29.8574 16.0135 29.8574 16.0252C29.8574 16.308 29.7218 16.5095 29.4506 16.6296L27.7729 17.2844L25.7348 18.0826L25.3086 18.2492L26.1301 20.1361L26.1611 20.2136L28.1255 19.4425L30.4579 18.5281C31.0236 18.3034 31.4266 17.9857 31.6552 17.5789C31.8877 17.1682 32.0039 16.6451 32.0039 16.0058C32.0078 15.3626 31.8915 14.8396 31.6591 14.4289Z" fill="#DC3545"/>
<path d="M18.687 23.1583L17.8501 22.7902C16.6723 22.2787 15.3394 22.2787 14.1654 22.7902L13.3285 23.1583L12.9837 23.3094L11.0193 24.1656L10.6008 24.3516L8.59379 25.2273L6.94323 25.9479C6.66814 26.0564 6.42791 26.0138 6.22644 25.8123C6.22256 25.8085 6.21869 25.8046 6.21481 25.8007C6.21094 25.7968 6.20706 25.793 6.20319 25.7891C6.00171 25.5876 5.95522 25.3474 6.0637 25.0723L6.78437 23.4217L7.66002 21.4108L7.846 20.9963L5.92809 20.2407L5.8506 20.2097L5.00207 22.1431L4.00244 24.4407C3.75834 25.0026 3.70022 25.5062 3.82421 25.9634C3.95207 26.4168 4.23878 26.8662 4.69211 27.3195C5.14543 27.7729 5.59488 28.0596 6.0482 28.1836C6.50153 28.3114 7.0091 28.2533 7.56703 28.0092L9.86465 27.0096L11.8019 26.1649L11.8794 26.13L13.7663 25.3086L13.2936 24.1037L13.7663 25.3086L14.1693 25.1343C15.3433 24.6228 16.6723 24.6228 17.8462 25.1343L18.2531 25.3086L19.0357 23.3132L18.687 23.1583Z" fill="#0EA5E9"/>
<path d="M9.86077 4.99811L7.56316 3.99847C7.00522 3.75825 6.49765 3.70013 6.04433 3.82412C5.59101 3.9481 5.14156 4.23869 4.68823 4.69202C4.23491 5.14534 3.94819 5.59479 3.82033 6.04811C3.69634 6.50144 3.75446 7.00513 3.99469 7.56694L4.9982 9.86456L5.84285 11.798L5.87772 11.8755L6.69913 13.7624L7.6639 13.3827L6.69913 13.7585L6.87349 14.1653C7.38493 15.3393 7.38493 16.6683 6.87349 17.8423L6.69913 18.2452L8.69453 19.0279L8.84564 18.6792L9.20985 17.8423C9.72516 16.6683 9.72516 15.3354 9.21372 14.1576L8.84564 13.3207L8.69453 12.972L7.83438 11.0076L7.65227 10.5891L6.77662 8.58208L6.05595 6.93151C5.94747 6.65642 5.99396 6.4162 6.19544 6.21472C6.19931 6.20697 6.20319 6.20697 6.20706 6.2031C6.21094 6.19535 6.21481 6.19535 6.21869 6.19147C6.42016 5.99 6.65651 5.9435 6.93548 6.05199L8.58604 6.77266L10.5931 7.65218L11.0115 7.83429L11.7671 5.92025L11.7981 5.83889L9.86077 4.99811Z" fill="#0EA5E9"/>
<path d="M23.3133 19.0319L22.9607 19.1675L22.1083 19.5046C20.9149 19.9695 19.9734 20.9149 19.5046 22.1083L19.1675 22.9607L19.0319 23.3133L18.2492 25.3087L18.0826 25.731L17.2806 27.7729L16.6258 29.4467C16.5057 29.7179 16.3081 29.8574 16.0213 29.8574C16.0136 29.8574 16.0097 29.8574 16.002 29.8535C15.9942 29.8574 15.9903 29.8574 15.9826 29.8574C15.6959 29.8574 15.4983 29.7179 15.3782 29.4467L14.7234 27.7729L13.9252 25.731L13.7586 25.3048L11.8678 26.1262L11.7942 26.1572L12.5652 28.1255L13.4835 30.4541C13.7082 31.0236 14.0259 31.4227 14.4328 31.6552C14.8435 31.8877 15.3665 32 16.0058 32C16.6451 32 17.1682 31.8877 17.5789 31.6552C17.9857 31.4227 18.3035 31.0236 18.5282 30.4541L19.4426 28.1255L20.2136 26.1572L20.1787 26.1417L20.2175 26.1572L20.2485 26.0797L21.0001 24.1657L19.9424 23.7046L21.0001 24.1657L21.159 23.755C21.6278 22.5655 22.5693 21.6201 23.7627 21.1512L24.1773 20.9924L23.3133 19.0319Z" fill="#DC3545"/>
</svg>
